<?xml version="1.0" encoding="utf-8"?>
<!-- Generator: Adobe Illustrator 16.0.0, SVG Export Plug-In . SVG Version: 6.00 Build 0)  -->
<!DOCTYPE svg PUBLIC "-//W3C//DTD SVG 1.1//EN" "http://www.w3.org/Graphics/SVG/1.1/DTD/svg11.dtd">
<svg version="1.1" id="Layer_1" xmlns="http://www.w3.org/2000/svg" xmlns:xlink="http://www.w3.org/1999/xlink" x="0px" y="0px"
	 width="100.588px" height="42.172px" viewBox="0 0 100.588 42.172" enable-background="new 0 0 100.588 42.172"
	 xml:space="preserve">
<g>
	<path fill="#000000" d="M43.43,0v41.459h-8.48v-24.56l-13.236,9.574L8.478,16.899v24.56H0V0l21.714,16.463L43.43,0z"/>
	<path fill="#000000" d="M58.398,38.012c0,2.245-1.751,4.16-4.267,4.16c-2.517,0-4.211-1.915-4.211-4.16
		c0-2.352,1.75-4.213,4.211-4.213C56.647,33.799,58.398,35.661,58.398,38.012z M57.741,28.606h-7.164V0.71h7.164V28.606z"/>
	<path fill="#000000" d="M64.928,41.459V0.71h18.651c9.9,0,17.009,7.876,17.009,15.862c0,10.228-6.778,17.939-17.609,17.939h-9.576
		v6.948H64.928z M82.813,26.8c5.852,0,9.299-4.32,9.299-9.353c0-4.485-3.282-9.079-8.805-9.079h-9.905V26.8H82.813z"/>
</g>
</svg>
