<?xml version="1.0" encoding="utf-8"?>
<!-- Generator: Adobe Illustrator 16.0.0, SVG Export Plug-In . SVG Version: 6.00 Build 0)  -->
<!DOCTYPE svg PUBLIC "-//W3C//DTD SVG 1.1//EN" "http://www.w3.org/Graphics/SVG/1.1/DTD/svg11.dtd">
<svg version="1.1" id="Layer_1" xmlns="http://www.w3.org/2000/svg" xmlns:xlink="http://www.w3.org/1999/xlink" x="0px" y="0px"
	 width="455.321px" height="112.715px" viewBox="0 0 455.321 112.715" enable-background="new 0 0 455.321 112.715"
	 xml:space="preserve">
<g>
	<path fill="#FFFFFF" d="M10.533,111.831V61.152h23.196c12.312,0,21.155,9.798,21.155,19.728c0,12.722-8.435,22.312-21.904,22.312
		H21.077v8.64H10.533z M32.776,93.602c7.279,0,11.564-5.375,11.564-11.633c0-5.578-4.082-11.293-10.952-11.293H21.077v22.926H32.776
		z"/>
	<path fill="#FFFFFF" d="M60.256,86.458c0-14.487,11.7-26.188,26.189-26.188c14.557,0,26.257,11.701,26.257,26.188
		c0,14.489-11.7,26.258-26.189,26.258C71.956,112.715,60.256,100.947,60.256,86.458z M71.071,86.458
		c0,9.047,6.734,16.123,15.441,16.123c8.571,0,15.374-7.076,15.374-16.123c0-8.91-6.871-16.121-15.441-16.121
		C77.806,70.336,71.071,77.547,71.071,86.458z M78.113,90.05l8.57-9.114l8.162,9.114H78.113z"/>
	<path fill="#FFFFFF" d="M129.434,61.152v41.154h20.407v9.523H118.89V61.152H129.434z"/>
	<path fill="#FFFFFF" d="M167.593,111.831h-10.544V61.152h10.544V111.831z"/>
	<path fill="#FFFFFF" d="M225.956,89.452c-1.497,12.991-12.652,23.264-26.121,23.264c-14.489,0-26.053-11.698-26.053-26.188
		c0-14.488,11.564-26.256,25.985-26.256c9.455,0,17.822,4.897,22.38,12.312l-8.231,5.851c-3.673-5.441-8.843-8.095-14.081-8.095
		c-8.503,0-15.237,7.209-15.237,16.188c0,8.91,6.734,16.054,15.237,16.054c7.619,0,14.013-5.511,15.441-13.129H225.956
		L225.956,89.452z"/>
	<path fill="#FFFFFF" d="M251.327,79.725l-17.074,32.105H223.37l28.366-51.562l27.618,51.562H267.79L251.327,79.725z
		 M259.489,102.784l-8.162,9.114l-8.57-9.114H259.489z"/>
	<path fill="#FFFFFF" d="M282.206,74.895c0-8.569,7.893-14.625,14.897-14.625c5.034,0,9.795,1.904,13.673,6.531l-8.299,6.055
		c-1.359-1.43-3.605-2.518-5.374-2.518c-2.789,0-4.692,1.699-4.692,4.488c0,2.312,1.699,4.422,7.073,4.762
		c8.64,0.545,15.781,6.396,15.781,16.189c0,9.863-8.229,16.938-17.142,16.938c-5.783,0-11.564-2.107-16.396-7.414l8.707-6.395
		c2.312,2.926,4.692,3.674,7.688,3.674c3.469,0,6.188-2.789,6.188-6.057c0-4.08-2.724-6.599-7.619-7.144
		C287.92,88.363,282.206,82.854,282.206,74.895z"/>
	<path fill="#FFFFFF" d="M329.073,111.831V70.676h-12.517v-9.521h36.394v9.521h-13.332v41.154L329.073,111.831L329.073,111.831z"/>
	<path fill="#FFFFFF" d="M369.614,103.057v8.773h-10.543V61.152h17.618c11.903,0,21.019,8.912,21.019,19.933
		c0,9.115-4.354,15.781-11.428,19.047l10.953,11.699H383.22l-8.3-8.774H369.614L369.614,103.057z M375.396,93.532
		c7.481,0,11.7-4.558,11.7-11.632c0-6.188-3.741-11.225-11.088-11.225h-6.396v22.855L375.396,93.532L375.396,93.532z"/>
	<path fill="#FFFFFF" d="M402.875,86.526c0-14.559,11.699-26.256,26.189-26.256c14.557,0,26.256,11.699,26.256,26.256
		c0,14.422-11.699,26.189-26.189,26.189C414.575,112.716,402.875,100.948,402.875,86.526z M413.692,86.525
		c0,8.979,6.732,16.056,15.439,16.056c8.57,0,15.373-7.076,15.373-16.056c0-9.047-6.869-16.258-15.439-16.258
		C420.426,70.27,413.692,77.479,413.692,86.525z M420.732,90.05l8.57-9.114l8.162,9.114H420.732z"/>
</g>
<g>
	<path fill="#FFFFFF" d="M54.011,0v51.562H43.467V21.02L27.005,32.923L10.544,21.02v30.542H0V0l27.005,20.475L54.011,0z"/>
	<path fill="#FFFFFF" d="M86.387,19.455L69.313,51.562H58.429L86.795,0l27.618,51.562h-11.564L86.387,19.455z M94.55,42.515
		l-8.163,9.115l-8.571-9.115H94.55z"/>
	<polygon fill="#FFFFFF" points="106.353,0.884 106.353,10.408 118.869,10.408 118.869,51.561 129.413,51.561 129.413,10.407 
		157.054,10.408 157.054,51.562 167.598,51.562 167.598,10.408 180.931,10.408 180.931,0.885 	"/>
</g>
</svg>
