<?xml version="1.0" encoding="utf-8"?>
<!-- Generator: Adobe Illustrator 16.0.0, SVG Export Plug-In . SVG Version: 6.00 Build 0)  -->
<!DOCTYPE svg PUBLIC "-//W3C//DTD SVG 1.1//EN" "http://www.w3.org/Graphics/SVG/1.1/DTD/svg11.dtd">
<svg version="1.1" id="Capa_1" xmlns="http://www.w3.org/2000/svg" xmlns:xlink="http://www.w3.org/1999/xlink" x="0px" y="0px"
	 width="12.887px" height="22.729px" viewBox="0 0 12.887 22.729" enable-background="new 0 0 12.887 22.729" xml:space="preserve">
<path fill="#909090" d="M7.653,4.94V0H4.464C4.392,0.183,4.354,0.4,4.354,0.622C4.32,0.729,4.282,0.806,4.282,0.915
	C3.954,2.744,3.002,4.025,1.39,4.722C0.914,4.94,0.476,4.975,0,4.94v3.987h2.342c0.039,5.604,0.039,8.493,0.039,8.64
	c0,0.11,0,0.222,0,0.332c0.294,2.449,1.573,3.914,3.844,4.463c0.914,0.259,1.9,0.366,2.893,0.366
	c1.278-0.036,2.524-0.256,3.771-0.659v-4.685c-0.73,0.22-1.396,0.402-1.978,0.583C9.775,18.3,8.823,18.08,8.053,17.348
	c-0.073-0.11-0.184-0.257-0.222-0.403c-0.105-0.586-0.179-1.204-0.179-1.795V8.928h5.083V4.94H7.653z"/>
</svg>
